<svg xmlns="http://www.w3.org/2000/svg" xmlns:xlink="http://www.w3.org/1999/xlink" width="500" zoomAndPan="magnify" viewBox="0 0 375 374.999991" height="500" preserveAspectRatio="xMidYMid meet" version="1.0"><defs><clipPath id="26e3a8961f"><path d="M 79.226562 38 L 295.976562 38 L 295.976562 337 L 79.226562 337 Z M 79.226562 38 " clip-rule="nonzero"/></clipPath></defs><g clip-path="url(#26e3a8961f)"><path fill="#f4ce14" d="M 187.496094 38.066406 C 127.699219 38.066406 79.226562 86.539062 79.226562 146.335938 L 79.226562 336.933594 L 170.789062 336.933594 L 180.578125 304.085938 L 196.664062 304.085938 L 206.449219 336.933594 L 295.765625 336.933594 L 295.765625 146.335938 C 295.765625 86.539062 247.292969 38.066406 187.496094 38.066406 Z M 197.691406 302.722656 L 174.507812 302.722656 L 183.410156 272.800781 L 193.832031 272.800781 L 202.734375 302.722656 Z M 184.46875 222.664062 L 192.789062 222.664062 L 199.496094 245.191406 L 177.761719 245.191406 Z M 179.871094 221.300781 L 185.054688 203.871094 L 192.1875 203.871094 L 197.371094 221.300781 Z M 184.152344 246.535156 L 193.089844 246.535156 L 200.503906 271.453125 L 176.738281 271.453125 Z M 279.289062 168.636719 C 272.265625 169.890625 265.078125 168.988281 258.480469 166.300781 C 256.125 165.34375 253.71875 164.636719 251.472656 164.421875 C 251.472656 164.421875 255.382812 168.15625 258.070312 172.441406 C 251.808594 173.574219 245.332031 172.597656 239.738281 169.574219 C 236.179688 167.644531 232.324219 166.050781 228.820312 165.660156 C 228.820312 165.660156 233.792969 170.777344 236.765625 176.28125 C 230.625 177.378906 224.269531 176.847656 218.5 174.492188 C 215.917969 173.429688 213.226562 172.632812 210.714844 172.441406 C 210.714844 172.441406 210.183594 171.660156 212.839844 175.644531 C 209.988281 175.660156 206.21875 177.128906 201.691406 178.617188 C 195.992188 180.507812 191.796875 182.367188 189.25 184.367188 L 189.636719 184.367188 C 196.417969 181.269531 217.050781 172.972656 239.3125 180.988281 C 257.648438 187.605469 270.9375 201.214844 275.910156 216.328125 L 275.363281 216.132812 C 268.65625 213.710938 262.886719 209.320312 258.496094 203.710938 C 256.9375 201.710938 255.203125 199.886719 253.363281 198.578125 C 253.363281 198.578125 254.886719 203.78125 255.082031 208.824219 C 249.101562 206.664062 243.96875 202.59375 240.640625 197.179688 C 238.515625 193.746094 235.984375 190.421875 233.136719 188.332031 C 233.136719 188.332031 234.890625 195.234375 234.710938 201.5 C 228.835938 199.375 223.617188 195.730469 219.792969 190.808594 C 218.078125 188.597656 216.148438 186.5625 214.078125 185.144531 C 214.078125 185.144531 215.597656 189.960938 215.917969 194.71875 C 212.484375 192.703125 208.203125 190.527344 203.105469 188.667969 C 198.503906 186.988281 194.292969 185.941406 190.613281 185.253906 L 195.777344 202.578125 L 181.496094 202.578125 L 186.664062 185.253906 C 182.964844 185.941406 178.753906 186.988281 174.136719 188.667969 C 169.039062 190.542969 164.757812 192.703125 161.324219 194.71875 C 161.640625 189.960938 163.164062 185.144531 163.164062 185.144531 C 161.09375 186.578125 159.164062 188.613281 157.449219 190.808594 C 153.625 195.730469 148.386719 199.375 142.527344 201.5 C 142.371094 195.234375 144.105469 188.332031 144.105469 188.332031 C 141.273438 190.421875 138.722656 193.746094 136.601562 197.179688 C 133.273438 202.59375 128.140625 206.683594 122.160156 208.824219 C 122.355469 203.78125 123.875 198.578125 123.875 198.578125 C 122.035156 199.886719 120.300781 201.691406 118.746094 203.710938 C 114.355469 209.339844 108.585938 213.726562 101.878906 216.132812 L 101.332031 216.328125 C 106.285156 201.234375 119.574219 187.605469 137.929688 180.988281 C 160.191406 172.972656 180.824219 181.253906 187.601562 184.367188 L 188.027344 184.367188 C 185.460938 182.386719 181.25 180.617188 175.550781 178.722656 C 171.039062 177.234375 167.25 175.660156 164.402344 175.644531 C 167.058594 171.679688 166.527344 172.441406 166.527344 172.441406 C 164.03125 172.632812 161.339844 173.429688 158.738281 174.492188 C 152.96875 176.847656 146.597656 177.394531 140.476562 176.28125 C 143.46875 170.777344 148.421875 165.660156 148.421875 165.660156 C 144.917969 166.050781 141.058594 167.660156 137.503906 169.574219 C 131.910156 172.597656 125.433594 173.574219 119.167969 172.441406 C 121.859375 168.175781 125.769531 164.421875 125.769531 164.421875 C 123.523438 164.636719 121.117188 165.34375 118.761719 166.300781 C 112.160156 168.972656 104.957031 169.890625 97.949219 168.636719 L 97.367188 168.527344 C 109.207031 157.929688 127.539062 152.777344 146.722656 156.230469 C 170.683594 160.53125 184.417969 178.792969 188.292969 184.351562 L 188.382812 184.351562 C 188.1875 183.976562 187.902344 183.375 187.53125 182.582031 C 185.816406 179.324219 183.285156 175.589844 179.570312 171.609375 C 176.984375 168.828125 174.488281 166.335938 172.1875 164.707031 C 174.773438 163.433594 175.535156 163.078125 175.726562 162.988281 C 173.464844 161.910156 170.738281 161.273438 167.976562 160.882812 C 161.800781 160.035156 156.03125 157.328125 151.253906 153.308594 C 156.597656 150.035156 163.445312 148.105469 163.445312 148.105469 C 160.207031 146.691406 156.066406 146.160156 152.03125 146.035156 C 145.679688 145.859375 139.574219 143.46875 134.726562 139.363281 C 139.203125 137.011719 144.457031 135.738281 144.457031 135.738281 C 142.40625 134.78125 139.964844 134.195312 137.449219 133.84375 C 130.390625 132.851562 123.699219 130.054688 118.25 125.453125 L 117.804688 125.082031 C 133.363281 121.828125 151.800781 126.535156 166.703125 139.097656 C 171.765625 143.382812 175.640625 148.175781 178.628906 153.027344 C 177.941406 148.515625 177.5 143.71875 177.5 138.726562 C 177.5 133.667969 177.941406 128.816406 178.648438 124.269531 L 187.496094 128.765625 L 180.648438 114.464844 C 183.941406 101.457031 188.628906 92.785156 188.628906 92.785156 C 188.628906 92.785156 199.761719 113.351562 199.761719 138.726562 C 199.761719 139.929688 199.671875 139.523438 199.621094 140.710938 L 191.9375 149.824219 L 199.777344 146.621094 C 199.496094 148.691406 199.140625 150.761719 198.753906 152.8125 C 201.726562 148.035156 205.546875 143.3125 210.539062 139.097656 C 225.4375 126.515625 243.878906 121.828125 259.433594 125.082031 L 258.992188 125.453125 C 253.542969 130.054688 246.851562 132.851562 239.792969 133.84375 C 237.277344 134.195312 234.835938 134.78125 232.78125 135.738281 C 232.78125 135.738281 238.039062 137.011719 242.515625 139.363281 C 237.648438 143.46875 231.5625 145.859375 225.207031 146.035156 C 221.175781 146.140625 217.03125 146.691406 213.792969 148.105469 C 213.792969 148.105469 220.644531 150.054688 225.988281 153.308594 C 221.226562 157.328125 215.441406 160.035156 209.265625 160.882812 C 206.503906 161.273438 203.777344 161.910156 201.511719 162.988281 C 201.707031 163.078125 202.46875 163.433594 205.050781 164.707031 C 202.75 166.335938 200.257812 168.828125 197.671875 171.609375 C 193.265625 176.332031 190.558594 180.703125 188.878906 184.351562 L 188.984375 184.351562 C 192.875 178.792969 206.554688 160.53125 230.519531 156.230469 C 249.703125 152.777344 268.019531 157.929688 279.875 168.527344 Z M 279.289062 168.636719 " fill-opacity="1" fill-rule="nonzero"/></g></svg>